<svg xmlns="http://www.w3.org/2000/svg" viewBox="0 0 48 48" id="celebration"><symbol id="New_Symbol_14" viewBox="-6.5 -6.5 13 13"><path fill="#ffd4c3" stroke="#504b46" stroke-linecap="round" stroke-linejoin="round" stroke-miterlimit="10" d="M0-6c2.2 0 4.1 1.5 4.7 3.5C6.3-2.5 6.4 0 5 0v1c0 2.8-2.2 5-5 5s-5-2.2-5-5V0c-1.4 0-1.3-2.5.2-2.5C-4.1-4.5-2.2-6 0-6z"></path><circle cx="-1.6" cy="-.1" r=".1" fill="#ffc258"></circle><path fill="#4f4b45" d="M-1.6.5c-.3 0-.6-.3-.6-.6s.2-.7.6-.7c.3 0 .6.3.6.7s-.3.6-.6.6z"></path><circle cx="1.6" cy="-.1" r=".1" fill="#ffc258"></circle><path fill="#4f4b45" d="M1.6.5C1.3.5 1 .2 1-.1s.3-.6.6-.6.6.3.6.6-.2.6-.6.6z"></path><circle cx="-3" cy="-1.5" r=".5" fill="#fabfa5"></circle><circle cx="3" cy="-1.5" r=".5" fill="#fabfa5"></circle><path fill="none" stroke="#504b46" stroke-linecap="round" stroke-linejoin="round" stroke-miterlimit="10" d="M-1.2-3c.8-.5 1.7-.5 2.5 0"></path></symbol><g id="Icons"><g id="XMLID_1217_"><ellipse id="XMLID_1080_" cx="25.2" cy="44" fill="#45413c" opacity=".15" rx="10" ry="1.5"></ellipse><g id="XMLID_1012_"><path id="XMLID_1067_" fill="none" stroke="#45413c" stroke-linecap="round" stroke-linejoin="round" stroke-miterlimit="10" d="M26.6 10.2c-.8-1.4-1.8-3.8-1.8-7.8 0 3.9-.9 6.3-1.8 7.7"></path><ellipse id="XMLID_1066_" cx="15.7" cy="17.2" fill="#ebcb00" stroke="#45413c" stroke-linecap="round" stroke-linejoin="round" stroke-miterlimit="10" rx="10.2" ry="3" transform="rotate(-40.051 15.707 17.203)"></ellipse><path id="XMLID_1065_" fill="#ffe500" d="M23.5 10.6c-1.1-1.3-5.4.7-9.7 4.3-4.3 3.6-6.9 7.6-5.9 8.8C4.3 19.5 4.8 13 9.2 9.4c4.3-3.6 10.7-3.1 14.3 1.2z"></path><path id="XMLID_1064_" fill="#fff48c" d="M9.2 11.5c3.4-2.9 8.2-3.1 11.8-.9 1.2-.4 2.1-.4 2.5.1-3.6-4.3-10-4.9-14.4-1.2-2.7 2.3-3.9 5.7-3.6 8.9.3-2.6 1.5-5.1 3.7-6.9z"></path><path id="XMLID_1063_" fill="none" stroke="#45413c" stroke-linecap="round" stroke-linejoin="round" stroke-miterlimit="10" d="M23.5 10.6c-1.1-1.3-5.4.7-9.7 4.3-4.3 3.6-6.9 7.6-5.9 8.8C4.3 19.5 4.8 13 9.2 9.4c4.3-3.6 10.7-3.1 14.3 1.2z"></path><ellipse id="XMLID_1062_" cx="33.9" cy="17.2" fill="#ebcb00" stroke="#45413c" stroke-linecap="round" stroke-linejoin="round" stroke-miterlimit="10" rx="3" ry="10.2" transform="rotate(-49.949 33.935 17.203)"></ellipse><path id="XMLID_1061_" fill="#ffe500" d="M26.1 10.6c1.1-1.3 5.4.7 9.7 4.3 4.3 3.6 6.9 7.6 5.9 8.8 3.6-4.3 3.1-10.7-1.2-14.4-4.3-3.5-10.7-3-14.4 1.3z"></path><path id="XMLID_1060_" fill="#fff48c" d="M40.5 11.5c-3.4-2.9-8.2-3.1-11.8-.9-1.2-.4-2.1-.4-2.5.1 3.6-4.3 10-4.9 14.4-1.2 2.7 2.3 3.9 5.7 3.6 8.9-.4-2.6-1.6-5.1-3.7-6.9z"></path><path id="XMLID_1059_" fill="none" stroke="#45413c" stroke-linecap="round" stroke-linejoin="round" stroke-miterlimit="10" d="M26.1 10.6c1.1-1.3 5.4.7 9.7 4.3 4.3 3.6 6.9 7.6 5.9 8.8 3.6-4.3 3.1-10.7-1.2-14.4-4.3-3.5-10.7-3-14.4 1.3z"></path><path id="XMLID_1058_" fill="#00f5bc" stroke="#45413c" stroke-linecap="round" stroke-linejoin="round" stroke-miterlimit="10" d="M4.9 27.8C4.1 29 3 29.6 1.7 29.7l-1.2-2c1.4-.1 2.5-.7 3.3-1.8l1.1 1.9z"></path><path id="XMLID_1057_" fill="#ff6242" stroke="#45413c" stroke-linecap="round" stroke-linejoin="round" stroke-miterlimit="10" d="M32.2 15.5c0 1.4-.5 2.5-1.6 3.4l-2.1-1c1.1-.8 1.7-2 1.6-3.4l2.1 1z"></path><path id="XMLID_1056_" fill="#ff6196" stroke="#45413c" stroke-linecap="round" stroke-linejoin="round" stroke-miterlimit="10" d="M31.4 38.8c-.9-1.1-1.1-2.3-.8-3.7l2.3-.5c-.3 1.3-.1 2.6.8 3.7l-2.3.5z"></path><path id="XMLID_1055_" fill="#bf8df2" stroke="#45413c" stroke-linecap="round" stroke-linejoin="round" stroke-miterlimit="10" d="M19.8 14.6c-.9 1.1-1.1 2.3-.7 3.7l2.3.5c-.4-1.3-.1-2.6.7-3.7l-2.3-.5z"></path><path id="XMLID_1054_" fill="#bf8df2" stroke="#45413c" stroke-linecap="round" stroke-linejoin="round" stroke-miterlimit="10" d="M43.5 27.4c1.2.8 2.4.9 3.7.5l.3-2.3c-1.3.5-2.6.3-3.7-.5l-.3 2.3z"></path><path id="XMLID_1053_" fill="#ff8a14" stroke="#45413c" stroke-linecap="round" stroke-linejoin="round" stroke-miterlimit="10" d="M28.2 30.2c-.7 1.2-1.7 1.9-3.1 2.1l-1.3-1.9c1.4-.2 2.4-.9 3.1-2.1l1.3 1.9z"></path><path id="XMLID_1045_" fill="#4aeff7" stroke="#45413c" stroke-linecap="round" stroke-linejoin="round" stroke-miterlimit="10" d="M22.3 22.9c1.4.1 2.5.7 3.2 1.9l-1.2 2c-.8-1.2-1.8-1.8-3.2-1.9l1.2-2z"></path><path id="XMLID_1038_" fill="#fff48c" stroke="#45413c" stroke-linecap="round" stroke-linejoin="round" stroke-miterlimit="10" d="M16.6 37.1c.3-1.4 1.1-2.3 2.4-2.8l1.8 1.5c-1.3.5-2.1 1.5-2.4 2.8l-1.8-1.5z"></path><g id="XMLID_1026_"><path id="XMLID_1035_" fill="#ff6242" d="M18.7 20.8l-2 .2s.1 3-1.2 6.1c-.2-.5-.6-.9-1-1.2-1.7-1.4-4.2-1.1-5.5.6-1.4 1.7-1.1 4.2.6 5.5.6.5 1.3.8 2 .8C9.1 35.5 6 36.4 6 36.4l.5 1.9c3-.9 6.7-3.4 8.7-6.9 2.6-3.1 3.8-7.4 3.5-10.6zm-8.2 6.9c.7-.9 1.9-1 2.8-.3.9.7 1 1.9.3 2.8-.7.9-1.9 1-2.8.3-.8-.7-.9-1.9-.3-2.8z"></path><path id="XMLID_1034_" fill="#e04122" d="M15.2 31.4c-.9 1.1-2.2 1.6-3.5 1.5-.4.4-.8.8-1.2 1.1.9.3 1.8.3 2.7.2.8-.9 1.5-1.8 2-2.8z"></path><g id="XMLID_1031_"><path id="XMLID_1032_" fill="none" stroke="#45413c" stroke-linecap="round" stroke-linejoin="round" stroke-miterlimit="10" d="M10.5 27.7c-.7.9-.5 2.1.3 2.8.9.7 2.1.5 2.8-.3.7-.9.5-2.1-.3-2.8-.8-.7-2.1-.5-2.8.3z"></path></g><g id="XMLID_1029_"><path id="XMLID_1030_" fill="#e04122" d="M13.7 30.2c.8-1 1.4-2 1.9-3.1-.2-.4-.6-.8-1-1.2-.2.6-.5 1.3-.9 1.9.5.7.5 1.7 0 2.4z"></path></g><g id="XMLID_1027_"><path id="XMLID_1028_" fill="none" stroke="#45413c" stroke-linecap="round" stroke-linejoin="round" stroke-miterlimit="10" d="M13.6 30.2c3.4-3.9 3.1-9.2 3.1-9.2l2-.2c.3 3.2-.9 7.5-3.6 10.6"></path></g></g><g id="XMLID_1013_"><g id="XMLID_1020_"><path id="XMLID_1023_" fill="#6dd627" d="M38.1 32c.7-.2 1.3-.6 1.8-1.1 1.5-1.6 1.3-4.1-.3-5.6-1.6-1.4-4.1-1.3-5.6.3-.4.4-.6.9-.8 1.3-1.8-2.9-2.2-5.8-2.2-5.8l-2 .2c.3 3.2 2.1 7.2 5.2 9.8 2.5 3.1 4.9 3.6 8.1 3.9l.2-2c.1.2-2 .6-4.4-1zm-2.6-5c.7-.8 2-.9 2.8-.1.8.7.9 2 .1 2.8-.7.8-2 .9-2.8.1-.7-.8-.8-2-.1-2.8z"></path><path id="XMLID_1022_" fill="#46b000" d="M34.3 31.2l-.1-.1c1 1.3 2 2.1 3 2.7.9 0 1.9-.3 2.7-.8-.6-.2-1.2-.5-1.8-.9-1.3.3-2.7.1-3.8-.9z"></path><path id="XMLID_1021_" fill="#46b000" d="M35.6 29.7c-1-.8-1.7-1.8-2.3-2.7.2-.5.4-.9.7-1.3.3.5 1.1 1.6 1.2 1.7-.3.8-.2 1.7.4 2.3z"></path></g><g id="XMLID_1016_"><path id="XMLID_1017_" fill="none" stroke="#45413c" stroke-linecap="round" stroke-linejoin="round" stroke-miterlimit="10" d="M38.1 32c.7-.2 1.3-.6 1.8-1.1 1.5-1.6 1.3-4.1-.3-5.6-1.6-1.4-4.1-1.3-5.6.3-.4.4-.6.9-.8 1.3-1.8-2.9-2.2-5.8-2.2-5.8l-2 .2c.3 3.2 2.1 7.2 5.2 9.8 2.5 3.1 4.9 3.6 8.1 3.9l.2-2c.1.2-2 .6-4.4-1zm-2.6-5c.7-.8 2-.9 2.8-.1.8.7.9 2 .1 2.8-.7.8-2 .9-2.8.1-.7-.8-.8-2-.1-2.8z"></path></g><path id="XMLID_1015_" fill="none" stroke="#45413c" stroke-linecap="round" stroke-linejoin="round" stroke-miterlimit="10" d="M34.3 31.2c1.1.9 2.5 1.2 3.8.8"></path><path id="XMLID_1014_" fill="none" stroke="#45413c" stroke-linecap="round" stroke-linejoin="round" stroke-miterlimit="10" d="M35.7 29.7c-1-.8-1.8-1.8-2.4-2.8"></path></g></g><path id="XMLID_1011_" fill="none" stroke="#45413c" stroke-linecap="round" stroke-linejoin="round" stroke-miterlimit="10" d="M15.5 27.1c-.5 1.1-1.1 2.1-1.9 3.1"></path><path id="XMLID_1010_" fill="none" stroke="#45413c" stroke-linecap="round" stroke-linejoin="round" stroke-miterlimit="10" d="M11.6 32.9c1.3.1 2.6-.3 3.6-1.5"></path><path id="XMLID_1007_" fill="none" stroke="#45413c" stroke-miterlimit="10" d="M18.7 20.8l-2 .2s.1 3-1.2 6.1c-.2-.5-.6-.9-1-1.2-1.7-1.4-4.2-1.1-5.5.6-1.4 1.7-1.1 4.2.6 5.5.6.5 1.3.8 2 .8C9.1 35.5 6 36.4 6 36.4l.5 1.9c3-.9 6.7-3.4 8.7-6.9 2.6-3.1 3.8-7.4 3.5-10.6zm-8.2 6.9c.7-.9 1.9-1 2.8-.3.9.7 1 1.9.3 2.8-.7.9-1.9 1-2.8.3-.8-.7-.9-1.9-.3-2.8z"></path></g></g></svg>